<svg xmlns="http://www.w3.org/2000/svg" viewBox="0 0 48 48" height="48" width="48"><path d="M47 21a2 2 0 0 0 -2 -2h-11.48a0.46 0.46 0 0 1 -0.42 -0.26 0.46 0.46 0 0 1 0 -0.5l5.72 -10a2 2 0 0 0 -0.72 -2.72l-5.2 -3a2 2 0 0 0 -2.74 0.72l-5.72 10a0.5 0.5 0 0 1 -0.88 0l-5.72 -10a2 2 0 0 0 -2.74 -0.72L10 5.58a2 2 0 0 0 -0.72 2.72l5.72 10a0.46 0.46 0 0 1 0 0.5 0.46 0.46 0 0 1 -0.42 0.26H3a2 2 0 0 0 -2 2v6a2 2 0 0 0 2 2h11.48a0.48 0.48 0 0 1 0.42 0.24 0.46 0.46 0 0 1 0 0.5l-5.72 10A2 2 0 0 0 10 42.42l5.2 3a2 2 0 0 0 2.74 -0.74l5.72 -10a0.52 0.52 0 0 1 0.88 0l5.72 10a2 2 0 0 0 2.74 0.74l5.2 -3a2 2 0 0 0 0.72 -2.74l-5.72 -10a0.46 0.46 0 0 1 0 -0.5 0.48 0.48 0 0 1 0.42 -0.24h11.38a2 2 0 0 0 2 -2Z" fill="#000000" stroke-width="2"></path></svg>