<?xml version="1.0" encoding="UTF-8" standalone="no"?>
<!-- Created with Inkscape (http://www.inkscape.org/) -->

<svg
   width="12.523842mm"
   height="14.263237mm"
   viewBox="0 0 12.523842 14.263237"
   version="1.1"
   id="svg5"
   xml:space="preserve"
   inkscape:version="1.2.1 (9c6d41e, 2022-07-14)"
   sodipodi:docname="genderfair.svg"
   xmlns:inkscape="http://www.inkscape.org/namespaces/inkscape"
   xmlns:sodipodi="http://sodipodi.sourceforge.net/DTD/sodipodi-0.dtd"
   xmlns="http://www.w3.org/2000/svg"
   xmlns:svg="http://www.w3.org/2000/svg"><sodipodi:namedview
     id="namedview7"
     pagecolor="#ffffff"
     bordercolor="#666666"
     borderopacity="1.0"
     inkscape:showpageshadow="2"
     inkscape:pageopacity="0.0"
     inkscape:pagecheckerboard="0"
     inkscape:deskcolor="#d1d1d1"
     inkscape:document-units="mm"
     showgrid="false"
     inkscape:zoom="2.0670232"
     inkscape:cx="333.0877"
     inkscape:cy="484.02941"
     inkscape:window-width="1512"
     inkscape:window-height="865"
     inkscape:window-x="-1"
     inkscape:window-y="38"
     inkscape:window-maximized="0"
     inkscape:current-layer="layer1" /><defs
     id="defs2" /><g
     inkscape:label="Layer 1"
     inkscape:groupmode="layer"
     id="layer1"
     transform="translate(-85.08008,-127.19632)"><g
       id="g1913"
       inkscape:export-filename="genderfair.svg"
       inkscape:export-xdpi="96"
       inkscape:export-ydpi="96"><path
         id="path132"
         d="m 89.130994,129.96726 a 0.52916667,0.52916667 0 0 0 -0.320394,0.0703 l -1.349272,0.80977 a 0.52916667,0.52916667 0 0 0 -0.190686,0.71934 l 1.513603,2.64583 a 0.12170833,0.12170833 0 0 1 0,0.13229 0.12170833,0.12170833 0 0 1 -0.111105,0.0687 h -3.063895 a 0.52916667,0.52916667 0 0 0 -0.529167,0.52917 v 1.5875 a 0.52916667,0.52916667 0 0 0 0.529167,0.52916 h 3.03754 a 0.127,0.127 0 0 1 0.111105,0.0636 0.12170833,0.12170833 0 0 1 0,0.13229 l -1.513603,2.64583 a 0.52916667,0.52916667 0 0 0 0.217041,0.6935 l 1.375627,0.79375 a 0.52916667,0.52916667 0 0 0 0.72502,-0.19585 l 1.513603,-2.64584 a 0.13758333,0.13758333 0 0 1 0.232544,0 l 1.513602,2.64584 a 0.52916667,0.52916667 0 0 0 0.725021,0.19585 l 1.375626,-0.79375 a 0.52916667,0.52916667 0 0 0 0.190686,-0.72502 l -1.513602,-2.64583 a 0.12170833,0.12170833 0 0 1 0,-0.1323 0.127,0.127 0 0 1 0.111104,-0.0636 h 3.011186 a 0.52916667,0.52916667 0 0 0 0.529166,-0.52916 v -1.57149 A 0.52916667,0.52916667 0 0 0 96.721745,134.398 h -3.037541 a 0.12170833,0.12170833 0 0 1 -0.111104,-0.0687 0.12170833,0.12170833 0 0 1 0,-0.13229 l 0.657841,-1.15032 c -0.248429,-0.19647 -0.441128,-0.47377 -0.504879,-0.79995 -0.106323,-0.54251 -0.550764,-0.97811 -1.044897,-1.07746 a 0.98638724,0.98638724 0 0 1 -0.0021,-5.1e-4 c -0.124118,-0.0252 -0.240884,-0.0693 -0.348815,-0.12764 l -1.048515,1.83296 a 0.13229167,0.13229167 0 0 1 -0.232544,0 l -1.513603,-2.64583 a 0.52916667,0.52916667 0 0 0 -0.404626,-0.26097 z" /><path
         d="m 95.086095,127.19632 c 0.187198,1e-5 0.348189,0.13257 0.38413,0.31627 0.183715,0.93527 0.918559,1.67534 1.818863,1.85592 0.419774,0.0837 0.419774,0.68397 0,0.76773 -0.900826,0.18111 -1.63567,0.92014 -1.818863,1.85487 -0.08147,0.42334 -0.687354,0.42334 -0.768773,0 -0.183193,-0.93473 -0.918046,-1.67376 -1.818863,-1.85487 -0.418048,-0.0849 -0.418048,-0.68232 0,-0.76721 0.900817,-0.1811 1.63567,-0.92117 1.819386,-1.85644 0.0359,-0.1837 0.196922,-0.31626 0.38412,-0.31627 z"
         style="clip-rule:evenodd;fill:#000000;fill-rule:evenodd;stroke:none;stroke-width:1.97258;stroke-linejoin:round;stroke-opacity:1;paint-order:markers stroke fill"
         id="path478-7"
         inkscape:label="path478-7" /></g></g></svg>
