<svg xmlns="http://www.w3.org/2000/svg" fill="none" viewBox="0 0 48 48" height="48" width="48"><path fill="#000000" fill-rule="evenodd" d="M37.784 0.828a1.5 1.5 0 0 1 1.472 1.212c0.704 3.584 3.52 6.42 6.97 7.112a1.5 1.5 0 0 1 0 2.942c-3.452 0.694 -6.268 3.526 -6.97 7.108a1.5 1.5 0 0 1 -2.946 0c-0.702 -3.582 -3.518 -6.414 -6.97 -7.108a1.5 1.5 0 0 1 0 -2.94c3.452 -0.694 6.268 -3.53 6.972 -7.114a1.5 1.5 0 0 1 1.472 -1.212Zm-13.148 9.796c0 -0.402 0.048 -0.794 0.14 -1.17H4.818A4.248 4.248 0 0 0 0.57 13.7v29.228c0 2.346 1.902 4.248 4.248 4.248h29.228a4.248 4.248 0 0 0 4.25 -4.248v-19.042a5 5 0 0 1 -5.42 -4.012c-0.436 -2.224 -2.192 -3.942 -4.224 -4.35a5 5 0 0 1 -4.016 -4.902Zm5.5 22.36 4.16 5.02v4.926a0.248 0.248 0 0 1 -0.25 0.248H4.82a0.248 0.248 0 0 1 -0.248 -0.248V31.92l4.72 -6.276a5.502 5.502 0 0 1 0.848 -0.83 4.274 4.274 0 0 1 5.886 0.818l0.002 0.004 6.388 8.29 1.402 -1.366 0.016 -0.016a4.274 4.274 0 0 1 6.304 0.44Z" clip-rule="evenodd" stroke-width="2"></path></svg>