<svg xmlns="http://www.w3.org/2000/svg" fill="none" viewBox="0 0 48 48" height="48" width="48"><path fill="#000000" fill-rule="evenodd" d="M46.354 5.08c-0.866 -0.608 -1.972 -0.886 -3.1 -0.886l-0.078 0c-8.678 0.46 -13.76 2.294 -16.724 4.146A12.76 12.76 0 0 0 24 10.292a12.664 12.664 0 0 0 -2.452 -1.952C18.584 6.488 13.5 4.652 4.82 4.196a1.48 1.48 0 0 0 -0.08 -0.002c-1.126 0 -2.23 0.28 -3.098 0.886 -0.896 0.628 -1.536 1.62 -1.536 2.852v25.974c0 1.218 0.62 2.186 1.42 2.808 0.776 0.602 1.766 0.926 2.746 0.932 8.54 0.22 13.174 1.97 15.62 3.518 1.224 0.772 1.914 1.504 2.288 1.996 0.152 0.2 0.254 0.366 0.318 0.48v-7.396a1.5 1.5 0 1 1 3 0v7.396c0.062 -0.114 0.164 -0.28 0.318 -0.48 0.372 -0.492 1.064 -1.224 2.286 -1.996 2.446 -1.548 7.08 -3.298 15.62 -3.52a4.56 4.56 0 0 0 2.748 -0.93c0.798 -0.62 1.42 -1.59 1.42 -2.808V7.932c0 -1.234 -0.64 -2.224 -1.538 -2.852Zm-31.82 15.24a1.5 1.5 0 0 1 1.5 -1.5h15.93a1.5 1.5 0 0 1 0 3H29.34c-0.392 2.046 -1.55 3.926 -3.03 5.496a16.314 16.314 0 0 0 4.292 2.088 1.5 1.5 0 1 1 -0.888 2.866A19.38 19.38 0 0 1 24 29.354a19.378 19.378 0 0 1 -5.714 2.916 1.5 1.5 0 0 1 -0.886 -2.866 16.316 16.316 0 0 0 4.292 -2.088c-1.48 -1.57 -2.64 -3.45 -3.032 -5.496H16.032a1.5 1.5 0 0 1 -1.5 -1.5Zm7.214 1.5h4.504c-0.36 1.194 -1.132 2.414 -2.252 3.57 -1.12 -1.156 -1.892 -2.376 -2.252 -3.57Zm1.32 -8.536a1.5 1.5 0 1 0 -2.12 2.122l1.99 1.992a1.5 1.5 0 0 0 2.122 -2.12l-1.992 -1.994Z" clip-rule="evenodd" stroke-width="2"></path></svg>