<svg xmlns="http://www.w3.org/2000/svg" fill="none" viewBox="0 0 48 48" height="48" width="48"><path fill="#000000" fill-rule="evenodd" d="M37.572 0.476a1.5 1.5 0 0 1 1.472 1.212c0.704 3.584 3.52 6.42 6.97 7.114a1.5 1.5 0 0 1 0 2.94c-3.452 0.694 -6.266 3.526 -6.97 7.11a1.5 1.5 0 0 1 -2.944 0c-0.704 -3.584 -3.518 -6.416 -6.97 -7.11a1.5 1.5 0 0 1 0 -2.94c3.452 -0.694 6.268 -3.53 6.972 -7.114a1.5 1.5 0 0 1 1.47 -1.212Zm-16.584 15.946a2 2 0 1 0 -4 0l0 29.104a2 2 0 0 0 4 0l0 -29.104Zm6.106 2.266a2 2 0 0 1 2 2v20.57a2 2 0 1 1 -4 0V20.688a2 2 0 0 1 2 -2Zm10.1 6.914a2 2 0 0 0 -4 0v10.74a2 2 0 1 0 4 0V25.6ZM10.888 21.774a2 2 0 0 1 2 2l0 14.402a2 2 0 1 1 -4 0l0 -14.402a2 2 0 0 1 2 -2ZM4.782 18.968a2 2 0 1 0 -4 0v24.008a2 2 0 1 0 4 0l0 -24.008Z" clip-rule="evenodd" stroke-width="2"></path></svg>