<svg xmlns="http://www.w3.org/2000/svg" fill="none" viewBox="0 0 48 48" height="48" width="48"><path fill="#000000" fill-rule="evenodd" d="M38.804 2.148a1.5 1.5 0 0 0 -2.944 0c-0.702 3.584 -3.52 6.42 -6.97 7.114a1.5 1.5 0 0 0 0 2.94c3.452 0.696 6.266 3.526 6.97 7.11a1.5 1.5 0 0 0 2.944 0c0.702 -3.582 3.52 -6.414 6.97 -7.108a1.5 1.5 0 0 0 0 -2.94c-3.45 -0.696 -6.266 -3.53 -6.97 -7.116ZM1.02 15.992a2 2 0 0 1 2 -2h20.644a2 2 0 1 1 0 4H3.02a2 2 0 0 1 -2 -2Zm2 7.688a2 2 0 0 0 0 4h41.532a2 2 0 1 0 0 -4H3.02Zm-2 11.696a2 2 0 0 1 2 -2h41.532a2 2 0 1 1 0 4H3.02a2 2 0 0 1 -2 -2Zm2 7.686a2 2 0 0 0 0 4h41.532a2 2 0 1 0 0 -4H3.02Z" clip-rule="evenodd" stroke-width="2"></path></svg>